<svg width="22" height="20" viewBox="0 0 22 20" fill="none" xmlns="http://www.w3.org/2000/svg">
<path d="M11.0001 0C5.01522 0 0.163574 3.8254 0.163574 8.54419C0.163574 11.595 2.19188 14.2719 5.24299 15.7835C5.07701 16.356 4.17632 19.4663 4.14048 19.7106C4.14048 19.7106 4.11891 19.8942 4.2378 19.9642C4.35669 20.0343 4.49652 19.9799 4.49652 19.9799C4.83746 19.9322 8.45009 17.3946 9.07538 16.954C9.70004 17.0424 10.3433 17.0884 11.0001 17.0884C16.985 17.0884 21.8367 13.2631 21.8367 8.54419C21.8367 3.8254 16.985 0 11.0001 0Z" fill="black"/>
<path d="M5.00912 11.5267C4.66433 11.5267 4.38393 11.2589 4.38393 10.9297V7.21553H3.40844C3.07011 7.21553 2.79492 6.94087 2.79492 6.60337C2.79492 6.26588 3.07021 5.99121 3.40844 5.99121H6.6098C6.94813 5.99121 7.22331 6.26588 7.22331 6.60337C7.22331 6.94087 6.94802 7.21553 6.6098 7.21553H5.6343V10.9297C5.6343 11.2589 5.35391 11.5267 5.00912 11.5267ZM10.4912 11.5186C10.2305 11.5186 10.031 11.4127 9.9709 11.2425L9.66133 10.432L7.75493 10.4319L7.44515 11.2429C7.38524 11.4128 7.18591 11.5186 6.92521 11.5186C6.78807 11.5187 6.65252 11.4893 6.5278 11.4323C6.35545 11.3528 6.18978 11.1342 6.37963 10.5445L7.87507 6.60837C7.98041 6.30901 8.3004 6.00059 8.70761 5.99132C9.11596 6.00048 9.43595 6.30901 9.5415 6.609L11.0363 10.5434C11.2266 11.1344 11.0609 11.3531 10.8886 11.4324C10.7638 11.4893 10.6283 11.5187 10.4912 11.5186ZM9.33258 9.32459L8.70813 7.55063L8.08367 9.32459H9.33258ZM12.0424 11.4355C11.712 11.4355 11.4433 11.1784 11.4433 10.8624V6.6164C11.4433 6.27161 11.7296 5.99121 12.0815 5.99121C12.4334 5.99121 12.7197 6.27161 12.7197 6.6164V10.2894H14.0482C14.3787 10.2894 14.6474 10.5465 14.6474 10.8624C14.6474 11.1784 14.3787 11.4355 14.0482 11.4355H12.0424ZM15.5158 11.5186C15.171 11.5186 14.8906 11.2382 14.8906 10.8934V6.6164C14.8906 6.27161 15.171 5.99121 15.5158 5.99121C15.8606 5.99121 16.141 6.27161 16.141 6.6164V7.96013L17.8852 6.21586C17.9749 6.12615 18.0982 6.07676 18.232 6.07676C18.3881 6.07676 18.5448 6.14407 18.6622 6.2614C18.7717 6.3708 18.8371 6.51157 18.846 6.65776C18.8551 6.8052 18.806 6.94035 18.7081 7.0384L17.2834 8.46288L18.8223 10.5016C18.872 10.567 18.9081 10.6416 18.9288 10.7211C18.9494 10.8007 18.954 10.8835 18.9423 10.9648C18.9312 11.0461 18.904 11.1245 18.8623 11.1952C18.8207 11.266 18.7654 11.3278 18.6997 11.3771C18.5916 11.4592 18.4595 11.5036 18.3237 11.5033C18.2268 11.5037 18.1312 11.4815 18.0445 11.4383C17.9577 11.3952 17.8823 11.3323 17.8243 11.2547L16.3581 9.31209L16.1412 9.52903V10.8931C16.141 11.0589 16.075 11.2179 15.9578 11.3351C15.8405 11.4524 15.6816 11.5184 15.5158 11.5186Z" fill="#FFE812"/>
</svg>
