<svg width="80" height="80" viewBox="0 0 80 80" fill="none" xmlns="http://www.w3.org/2000/svg">
<rect width="80" height="80" rx="40" fill="#1956FE" fill-opacity="0.04"/>
<g opacity="0.6">
<path fill-rule="evenodd" clip-rule="evenodd" d="M48.2998 41.245C47.9578 41.2536 47.6175 41.1937 47.2991 41.0687C46.9806 40.9437 46.6903 40.7563 46.4454 40.5174C46.2005 40.2785 46.0059 39.993 45.8731 39.6777C45.7402 39.3624 45.6719 39.0238 45.672 38.6816C45.6721 38.3395 45.7407 38.0009 45.8737 37.6857C46.0068 37.3705 46.2016 37.0851 46.4466 36.8464C46.6917 36.6077 46.982 36.4204 47.3006 36.2956C47.6192 36.1709 47.9595 36.1112 48.3015 36.12C48.9698 36.1373 49.6049 36.4149 50.0714 36.8938C50.5379 37.3726 50.7989 38.0148 50.7986 38.6833C50.7984 39.3518 50.5371 39.9938 50.0702 40.4724C49.6034 40.9509 48.9681 41.2282 48.2998 41.245ZM40.1098 41.245C39.7676 41.2536 39.4271 41.1936 39.1084 41.0686C38.7897 40.9435 38.4993 40.756 38.2542 40.5169C38.0092 40.2779 37.8144 39.9922 37.6815 39.6767C37.5486 39.3612 37.4802 39.0223 37.4803 38.68C37.4804 38.3376 37.549 37.9988 37.6822 37.6834C37.8153 37.368 38.0102 37.0824 38.2554 36.8435C38.5006 36.6046 38.7912 36.4173 39.11 36.2924C39.4287 36.1676 39.7693 36.1078 40.1115 36.1167C40.7802 36.1339 41.4158 36.4118 41.8826 36.8909C42.3494 37.3701 42.6105 38.0127 42.6103 38.6816C42.6101 39.3506 42.3485 39.993 41.8814 40.4719C41.4143 40.9507 40.7786 41.2282 40.1098 41.245ZM31.9182 41.245C31.5762 41.2536 31.2359 41.1937 30.9174 41.0687C30.5989 40.9437 30.3087 40.7563 30.0638 40.5174C29.8189 40.2785 29.6242 39.993 29.4914 39.6777C29.3586 39.3624 29.2902 39.0238 29.2903 38.6816C29.2904 38.3395 29.359 38.0009 29.4921 37.6857C29.6251 37.3705 29.8199 37.0851 30.0649 36.8464C30.31 36.6077 30.6004 36.4204 30.9189 36.2956C31.2375 36.1709 31.5778 36.1112 31.9198 36.12C32.5881 36.1373 33.2232 36.4149 33.6897 36.8938C34.1562 37.3726 34.4172 38.0148 34.417 38.6833C34.4168 39.3518 34.1554 39.9938 33.6886 40.4724C33.2218 40.9509 32.5865 41.2282 31.9182 41.245ZM39.9998 22.5C30.2782 22.5 22.3682 29.69 22.3682 38.5283C22.3682 42.3117 23.9682 47.46 28.4248 50.7833L27.8998 56.2733C27.8801 56.4756 27.9158 56.6795 28.0031 56.8631C28.0905 57.0466 28.2261 57.2029 28.3955 57.3153C28.5649 57.4277 28.7616 57.4918 28.9647 57.5008C29.1678 57.5099 29.3695 57.4635 29.5482 57.3667L35.2665 54.29C35.9782 54.3633 38.0682 54.5567 39.9998 54.5567C49.7215 54.5567 57.6315 47.3667 57.6315 38.5283C57.6315 29.69 49.7215 22.5 39.9998 22.5Z" fill="#8493BD"/>
</g>
</svg>
