<svg width="20" height="20" viewBox="0 0 20 20" fill="none" xmlns="http://www.w3.org/2000/svg">
<path fill-rule="evenodd" clip-rule="evenodd" d="M1.36937 8.90067C6.73698 6.64981 10.3103 5.15417 12.1046 4.42856C17.2115 2.37021 18.285 2.01481 18.9751 2C19.1285 2 19.4659 2.02962 19.6959 2.20732C19.8799 2.3554 19.926 2.54791 19.9566 2.69599C19.9873 2.84407 20.018 3.15505 19.9873 3.39198C19.7112 6.20556 18.515 13.0322 17.9016 16.1715C17.6409 17.5043 17.1348 17.9485 16.644 17.993C15.5705 18.0818 14.7577 17.3118 13.7302 16.6602C12.1046 15.6384 11.1998 15.0017 9.62015 13.9947C7.79516 12.8397 8.97604 12.2029 10.0189 11.1663C10.2949 10.8998 15.0031 6.75347 15.0951 6.38326C15.1104 6.33883 15.1104 6.16113 15.0031 6.07228C14.8957 5.98343 14.7424 6.01305 14.6197 6.04267C14.451 6.07228 11.8745 7.73081 6.85967 11.0034C6.12354 11.4921 5.46409 11.7291 4.86598 11.7142C4.20654 11.6994 2.94898 11.3588 1.99815 11.0627C0.847949 10.7073 -0.0722116 10.5148 0.00446848 9.89282C0.0504765 9.56704 0.510557 9.24126 1.36937 8.90067Z" fill="white"/>
</svg>
